<?xml version="1.0" encoding="UTF-8"?>
<svg id="Layer_2" xmlns="http://www.w3.org/2000/svg" xmlns:xlink="http://www.w3.org/1999/xlink" viewBox="0 0 284.59 284.59">
  <defs>
    <style>
      .cls-1 {
        fill: url(#radial-gradient);
      }
    </style>
    <radialGradient id="radial-gradient" cx="166.05" cy="102.83" fx="166.05" fy="102.83" r="167.99" gradientUnits="userSpaceOnUse">
      <stop offset="0" stop-color="#fff"/>
      <stop offset=".68" stop-color="#9c9c9c"/>
    </radialGradient>
  </defs>
  <g id="Layer_1-2" data-name="Layer_1">
    <g id="vPEJdZ.tif">
      <g>
        <path class="cls-1" d="M223.52,142.84c-.19,44.95-36.8,81.31-81.65,81.1-44.71-.21-81-36.91-80.8-81.71.2-44.97,36.88-81.04,82.15-80.78,44.25.25,80.48,36.98,80.3,81.38Z"/>
        <path class="cls-1" d="M0,142.31c17.35-8.39,34.18-16.53,51.5-24.91-2.04,8.44-2.95,16.58-2.96,24.8,0,8.25.84,16.42,2.93,24.96-17.3-8.35-34.17-16.5-51.47-24.85Z"/>
        <path class="cls-1" d="M284.59,142.25c-17.29,8.36-34.17,16.53-51.45,24.88,3.86-16.74,3.82-33.06.07-49.71,17.24,8.33,34.13,16.49,51.38,24.83Z"/>
        <path class="cls-1" d="M142.3,0c8.42,17.4,16.58,34.26,24.93,51.51-16.69-3.93-32.92-3.92-49.75-.08,8.31-17.22,16.41-34.01,24.82-51.43Z"/>
        <path class="cls-1" d="M224.16,188.91c6.29,18.04,12.44,35.67,18.8,53.91-18.12-6.28-35.78-12.4-53.94-18.7,14.47-9.17,26.08-20.6,35.15-35.21Z"/>
        <path class="cls-1" d="M60.52,188.99c9.08,14.52,20.59,26.08,35.16,35.19-18.08,6.3-35.69,12.44-53.88,18.78,6.32-18.23,12.45-35.91,18.72-53.97Z"/>
        <path class="cls-1" d="M242.81,41.65c-6.35,18.31-12.47,35.96-18.72,54-4.53-7.29-9.61-13.72-15.43-19.56-5.84-5.85-12.23-11-19.76-15.62,18.06-6.31,35.66-12.46,53.91-18.83Z"/>
        <path class="cls-1" d="M117.43,233.18c16.69,3.82,32.93,3.82,49.68.06-8.34,17.27-16.45,34.05-24.81,51.35-8.39-17.34-16.51-34.14-24.87-51.41Z"/>
        <path class="cls-1" d="M60.38,95.47c-6.21-17.8-12.39-35.48-18.73-53.66,18.19,6.31,35.89,12.45,53.77,18.65-18.27,13.36-20.06,14.54-35.04,35.01Z"/>
      </g>
    </g>
  </g>
</svg>